# xmcd
#
# Track frame offsets: 
#        150
#        16382
#        36202
#        61832
#        80906
#        100155
#        116692
#        140588
#        169182
#        192352
#        212045
#        229629
#
# Disc length: 3287 seconds
#
# Revision: 3
# Processed by: cddbd v1.5.2PL0 Copyright (c) Steve Scherf et al.
# Submitted via: ExactAudioCopy v1.0b3
#
DISCID=a50cd50c
DTITLE=CIRCUS - crystal2 ～サーカス ヴォーカルコレクション Vol.2～
DYEAR=2005
DGENRE=Game
TTITLE0=橋本みゆき - Cheer Up!
TTITLE1=rino - 明日の風
TTITLE2=yozuca＊ - 赤い糸
TTITLE3=橋本みゆき - 愛は静かなる夢に降る
TTITLE4=妖精帝國 - 一片の雫
TTITLE5=桃井はるこ - 和泉子絵描き歌
TTITLE6=橋本みゆき - SKY
TTITLE7=彩音 - そよ風のシルエ
TTITLE8=彩音 - カカシ
TTITLE9=橋本みゆき - 追憶そして予感
TTITLE10=rino - Aries
TTITLE11=橋本みゆき - Fragment ～Luminous Ver～
EXTD=YEAR: 2005
EXTT0=
EXTT1=
EXTT2=
EXTT3=
EXTT4=
EXTT5=
EXTT6=
EXTT7=
EXTT8=
EXTT9=
EXTT10=
EXTT11=
PLAYORDER=
